<?xml version="1.0" encoding="UTF-8"?>
<svg width="901px" height="281px" viewBox="0 0 901 281" version="1.1" xmlns="http://www.w3.org/2000/svg" xmlns:xlink="http://www.w3.org/1999/xlink">
    <title>headersvg1[SVG]</title>
    <defs>
        <linearGradient x1="44.7609088%" y1="81.271375%" x2="44.7609088%" y2="4.08032164%" id="linearGradient-1">
            <stop class="gradient1" stop-color="#D3E3F6" offset="0%"></stop>
            <stop class="gradient2" stop-color="#A8C8EE" offset="100%"></stop>
        </linearGradient>
        <path d="M12.75,0 L215.25,0 C222.291631,0 228,5.70836944 228,12.75 L228,126 C228,133.041631 222.291631,138.75 215.25,138.75 L12.75,138.75 C5.70836944,138.75 0,133.041631 0,126 L0,12.75 C0,5.70836944 5.70836944,0 12.75,0 Z" id="path-2"></path>
        <filter x="-5.7%" y="-7.9%" width="111.4%" height="118.7%" filterUnits="objectBoundingBox" id="filter-3">
            <feOffset dx="0" dy="2" in="SourceAlpha" result="shadowOffsetOuter1"></feOffset>
            <feGaussianBlur stdDeviation="4" in="shadowOffsetOuter1" result="shadowBlurOuter1"></feGaussianBlur>
            <feComposite in="shadowBlurOuter1" in2="SourceAlpha" operator="out" result="shadowBlurOuter1"></feComposite>
            <feColorMatrix values="0 0 0 0 0.108995249   0 0 0 0 0.0960909701   0 0 0 0 0.376613451  0 0 0 0.1 0" type="matrix" in="shadowBlurOuter1"></feColorMatrix>
        </filter>
    </defs>
    <g id="Email" stroke="none" stroke-width="1" fill="none" fill-rule="evenodd">
        <g id="headersvg1">
            <rect id="whiteBg" fill="#FFFFFF" x="0" y="0" width="900" height="209"></rect>
            <rect id="mainBackground30-50" fill-opacity="0.5" fill="#A8C8EE" x="0" y="0" width="900" height="209"></rect>
            <path d="M488,133.122774 C488.205353,178.316417 492.146599,209 509.183158,209 C517.243458,209 506.73015,209 518.912825,209 L555.5,208.709 C785.01253,208.515 899.768795,208.515 899.768795,208.709 C899.768795,208.903 899.845863,186.154683 900,140.464048 C857.033186,138.583575 730.628273,53.2532934 692.832876,31.9975287 C674.51267,21.6920615 649.475864,16 623.197363,16 C559.449497,16 488.372855,49.4872823 488,131.821298 L488,133.122774 Z" id="gradient30to40" fill="url(#linearGradient-1)"></path>
            <path d="M797.198656,189 L529.979045,189 C525.112795,189 525.068376,186.985291 525.068376,184.49996 C525.068376,182.014709 525.112795,180 529.979045,180 L802.002912,180 C806.86932,180 806.00981,182.014709 806.00981,184.49996 C806.00981,186.985291 802.966531,189 798.100123,189" id="mainColor" fill="#2A76D3" transform="translate(665.568376, 184.500000) scale(1, -1) translate(-665.568376, -184.500000) "></path>
            <path d="M836,36.54081 C878.670857,36.2189726 900.002227,36.2189726 899.99411,36.54081 C900.019104,35.6291915 899.99411,30.9701123 899.999622,27.7679395 C900.017488,17.3902616 882.646622,10.959015 869.93345,10.959015 C853.81145,10.959015 840.2153,21.771765 836,36.54081 Z" id="cloud" fill-opacity="0.5" fill="#FFFFFF"></path>
            <path d="M900.023307,3 C885.530662,8.70280832 874.318519,20.9268288 870,36.0580538 C883.243971,36.0580538 893.25174,36.0580538 900.023307,36.0580538" id="cloud" fill-opacity="0.8" fill="#FFFFFF"></path>
            <path d="M0.132259559,14.0655311 C0.0519483288,14.086152 -1.52915874e-13,38.540765 0.0519483288,38.540765 C9.5663487,38.540765 23.8379493,38.540765 42.86675,38.540765 C38.6516,23.771765 25.05545,12.959015 8.93345,12.959015 C5.89468326,12.959015 2.85122105,13.3674044 0.132259559,14.0655311 Z" id="cloud" fill-opacity="0.6" fill="#FFFFFF"></path>
            <path d="M101.508425,12.959015 C85.386425,12.959015 71.790275,23.771765 67.575125,38.540765 L135.441725,38.540765 C131.226575,23.771765 117.630425,12.959015 101.508425,12.959015" id="cloud" fill-opacity="0.7" fill="#FFFFFF"></path>
            <path d="M57.403445,2 C34.374845,2 14.954345,17.4449 8.933495,38.54075 L105.873545,38.54075 C99.852545,17.4449 80.432045,2 57.403445,2" id="cloud" fill-opacity="0.8" fill="#FFFFFF"></path>
            <g id="Starts" transform="translate(630.000000, 13.000000)" fill="#FFB737">
                <polygon id="Fill-64" points="138.99981 51 140.193459 55.8069208 145 56.9998099 140.193459 58.1934595 138.99981 63 137.806541 58.1934595 133 56.9998099 137.806541 55.8069208"></polygon>
                <polygon id="Fill-64-Copy" points="138.99981 136 140.193459 140.806921 145 141.99981 140.193459 143.193459 138.99981 148 137.806541 143.193459 133 141.99981 137.806541 140.806921"></polygon>
                <polygon id="Fill-110" points="26.5 31 27.3949758 34.6050242 31 35.5 27.3949758 36.3949758 26.5 40 25.6050242 36.3949758 22 35.5 25.6050242 34.6050242"></polygon>
                <polygon id="Fill-110-Copy" points="4.5 185 5.39497584 188.605024 9 189.5 5.39497584 190.394976 4.5 194 3.60502416 190.394976 0 189.5 3.60502416 188.605024"></polygon>
                <polygon id="Fill-109" points="76.4996968 0 79.5824156 12.4175844 92 15.4996968 79.5824156 18.5824156 76.4996968 31 73.4175844 18.5824156 61 15.4996968 73.4175844 12.4175844"></polygon>
            </g>
            <g id="Color_Chaning_Elements" transform="translate(0.016013, 19.000000)">
                <path d="M876.262482,13.997435 C868.449132,13.997435 861.859932,19.237685 859.817232,26.395385 L892.707732,26.395385 C890.665032,19.237685 884.075832,13.997435 876.262482,13.997435" id="mainColor20" fill="#7EACE5"></path>
                <path d="M875.983987,26.395355 L899.983987,26.395355 C899.983987,20.8564321 899.983987,14.9806269 899.983987,8.76793954 C889.079797,8.76793954 878.901937,16.171535 875.983987,26.395355 Z" id="mainColor" fill="#2A76D3"></path>
                <path d="M20.1276316,16.997435 C12.3142816,16.997435 5.72508157,22.237685 3.68238157,29.395385 L36.5728816,29.395385 C34.5301816,22.237685 27.9409816,16.997435 20.1276316,16.997435" id="mainColor10" fill="#5391DD"></path>
                <path d="M1.52766688e-13,29.395355 C4.94290702,29.395355 12.3572675,29.395355 22.2430816,29.395355 C19.434971,19.556358 10.6126079,12.2537577 0.00542292528,11.7179205" id="mainColor30" fill="#A8C8EE"></path>
                <path d="M194.429237,177.31108 C186.615887,177.31108 180.026687,182.55133 177.983987,189.70903 L210.874487,189.70903 C208.831787,182.55133 202.242587,177.31108 194.429237,177.31108" id="mainColor10" fill="#5391DD"></path>
                <path d="M239.294387,177.31108 C231.481037,177.31108 224.891837,182.55133 222.849137,189.70903 L255.739637,189.70903 C253.696937,182.55133 247.107737,177.31108 239.294387,177.31108" id="mainColor20" fill="#7EACE5"></path>
                <path d="M217.919537,172 C206.759087,172 197.347187,179.48515 194.429237,189.709 L241.409837,189.709 C238.491887,179.48515 229.079987,172 217.919537,172" id="mainColor30" fill="#A8C8EE"></path>
                <path d="M318.429237,5.31108 C310.615887,5.31108 304.026687,10.55133 301.983987,17.70903 L334.874487,17.70903 C332.831787,10.55133 326.242587,5.31108 318.429237,5.31108" id="mainColor10" fill="#5391DD"></path>
                <path d="M363.294387,5.31108 C355.481037,5.31108 348.891837,10.55133 346.849137,17.70903 L379.739637,17.70903 C377.696937,10.55133 371.107737,5.31108 363.294387,5.31108" id="Fill-447-Copy" fill="#FFFFFF"></path>
                <path d="M341.919537,7.10542736e-15 C330.759087,7.10542736e-15 321.347187,7.48515 318.429237,17.709 L365.409837,17.709 C362.491887,7.48515 353.079987,7.10542736e-15 341.919537,7.10542736e-15" id="mainColor30" fill="#A8C8EE"></path>
                <path d="M592.243242,33.0042751 C592.913796,32.9788997 593.600564,33.0792658 594.272755,33.3205779 L614.020987,40.4085871 L614.046238,40.2866597 L637.131055,47.1828609 L665.233288,39 L666.983987,43.2999888 L639.621122,57.384179 C639.610133,57.3899992 639.59993,57.3977595 639.588156,57.4035798 C638.714787,57.8529724 637.773956,58.0387709 636.856772,57.9933343 L636.582417,57.9727986 L636.582024,57.9751267 L614.306987,55.7645871 L612.705987,59.6735871 L633.983987,62.5558742 L633.810159,67.1957087 L609.027987,68.6555871 L602.938987,83.5245871 L602.983987,83.5408487 L602.270987,85.2455871 L622.983987,106.390238 L622.861232,106.525955 C623.560049,107.318914 623.983987,108.359978 623.983987,109.500195 C623.983987,109.669445 623.974643,109.836511 623.956443,110.000907 L623.983987,110 L621.551691,160 L614.983987,160 L614.983987,111.153 L593.892987,91.6415871 L583.092987,87.8435871 L573.682987,113.932587 L573.983987,114.039747 L557.220769,161 L556.725077,160.823673 C556.203166,162.100469 554.948794,163 553.484194,163 C551.550786,163 549.983987,161.433108 549.983987,159.5 C549.983987,158.229792 550.66046,157.1177 551.672915,156.504352 L565.407987,111.095587 L564.983987,110.946945 L574.010067,81.4107484 C573.94236,80.7359098 574.004999,80.0377023 574.215362,79.3501107 L575.852197,74 L576.078987,74.0795871 L584.888265,44.6919705 C584.784371,44.4916928 584.688135,44.2854852 584.600066,44.0735756 L584.506292,43.8376142 C582.939508,39.7079544 585.016556,35.0896295 589.146658,33.5224622 C590.166839,33.1353166 591.216819,32.9705875 592.243242,33.0042751 Z" id="mainColor" fill="#2A76D3"></path>
            </g>
            <g id="Dude" transform="translate(550.000000, 26.000000)">
                <path d="M31.2640264,80 L41,83.2965556 L40.7359736,84 L31,80.7034444 L31.2640264,80 Z M26.1434325,65 L27,65.2558088 L25.8565675,69 L25,68.7441912 L26.1434325,65 Z M50.7252092,35 L57.0906754,51.9975789 L62.219,52.702 L63.831,48.683 L61,48.3911472 L61.078052,47.5921911 L64.142,47.908 L65.3094725,45 L66,45.2928073 L64.918,47.989 L85.3733015,50.1018769 L86.1066001,50.1729399 C86.9952223,50.267289 87.8674535,50.0938472 88.6495346,49.6746964 L93.6393997,47 L94,47.7122353 L89.0382337,50.3696678 C88.2506889,50.7936365 87.4291915,51 86.568668,51 L86.297047,50.9930242 L86.297047,50.9930242 L85.6593621,50.9385727 L64.607,48.764 L62.985,52.807 L66,53.2211278 L65.8960107,54 L62.683,53.559 L59.73,60.917 L78.9548696,59.8118886 L79,60.5628292 L59.422,61.684 L57.6905275,66 L57,65.7071927 L58.595,61.731 L54.0802787,61.9909707 C53.9788316,61.9969902 53.8719843,62 53.7647513,62 C53.52907,62 53.2941603,61.9845749 53.0658079,61.9544771 C51.5090004,61.7486832 50.1388863,60.8844996 49.3064803,59.582769 L49.1390733,59.3231753 L46,54.3972912 L46.6553558,54 L49.9602932,59.1835967 C50.6715799,60.2953348 51.8407284,61.0334838 53.1691837,61.2088036 C53.4526954,61.2460497 53.7500935,61.2554552 54.039777,61.2396539 L54.4671662,61.2200903 L58.903,60.965 L61.917,53.453 L56.5292106,52.7139369 L50,35.2791516 L50.7252092,35 Z M33.2977251,42 L34,42.2214675 L27.7026418,64 L27,63.7785325 L33.2977251,42 Z M40.6340918,45 L45,52.575264 L44.3662812,53 L40,45.424736 L40.6340918,45 Z M110.641442,39 L111,39.6633016 L96.3589465,47 L96,46.3366984 L110.641442,39 Z M38.7383746,43 L40,44.6311561 L39.2616254,45 L38,43.3688439 L38.7383746,43 Z" id="DudesLines" fill="#212529" opacity="0.501488095"></path>
                <g id="Dudesbody">
                    <polygon id="Fill-73" fill="#FFFFFF" points="114.417973 32 116 36.0679024 112.414285 38 111 33.0427601 113.038088 32.4206276"></polygon>
                    <polygon id="Fill-80" fill="#2E566F" points="55.925 69 55 68.7444314 56.075 67 57 67.2555686"></polygon>
                    <polygon id="Fill-85" fill="#FFFFFF" points="50.7977562 28 48 57 59.2656885 39.8289216 62 32.0469221"></polygon>
                    <polygon id="Fill-86" fill="#FFFFFF" points="62 32.0469769 59.265764 39.8286893 54.5713733 46.9816042 48 57 49.1566731 45.0253889 50.7980658 28"></polygon>
                    <polygon id="Fill-91" fill="#0267A6" points="65.0004998 144 65 119 65.9995002 119 66 144"></polygon>
                    <polygon id="Fill-93" fill="#212529" points="54.4984698 46.9799127 48 57 49.1434583 45.0233671 56.2792655 32 57 32.2632529"></polygon>
                    <path d="M72,152.5 C72,154.433108 70.433201,156 68.5002074,156 C66.566799,156 65,154.433108 65,152.5 C65,150.566892 66.566799,149 68.5002074,149 C70.433201,149 72,150.566892 72,152.5" id="Fill-94" fill="#0267A6"></path>
                    <path d="M75.0100749,157 L65,157 L65,153 L71.6612886,153 L75.4841347,155.1144 C75.802015,155.2904 76,155.6284 76,155.9956 C76,156.5504 75.5567029,157 75.0100749,157" id="Fill-95" fill="#353B3E"></path>
                    <polygon id="Fill-96" fill="#FFC095" points="59.3790209 32 50 28.7830664 53.6209791 19 63 22.2165502"></polygon>
                    <polygon id="Fill-106" fill="#FFFFFF" points="80 55 84 55.5445298 83.8417279 59.7905107 82.4080729 59.8755157 80.2903426 60"></polygon>
                    <path d="M68.3517637,12.8766237 L66.8536828,13 L66,3.14118882 L67.4984945,3.01781256 C70.2911622,2.78799404 72.7463275,4.80878423 72.9816693,7.53112568 C73.2178383,10.2538703 71.1444314,12.6468052 68.3517637,12.8766237" id="Fill-122" fill="#1C3F55"></path>
                    <path d="M58,22.6776741 L54.3246424,22.9867716 C52.2952217,23.1575034 50.510906,21.6557104 50.3396571,19.6320119 L50,15.6185996 L57.3499036,15 L58,22.6776741 Z" id="Fill-123" fill="#1C3F55"></path>
                    <path d="M67.6424291,12.665397 L63.9869204,13 L63,0.314918844 L66.2685467,0.0157918429 C68.4996188,-0.188195034 70.4604494,1.60777638 70.6489122,4.02739937 L70.986807,8.36998166 C71.1570554,10.5573982 69.6597614,12.4807607 67.6424291,12.665397" id="Fill-124" fill="#1C3F55"></path>
                    <path d="M67.7544391,25.9223697 L55.2191095,27 L54.0281089,12.6182238 C53.6655457,8.24335481 56.852593,4.39796648 61.1464327,4.02856135 C65.2936877,3.67186692 68.9859843,6.69542812 69.5356769,10.8990997 L70.9683863,21.8481886 C71.2362152,23.8922303 69.771148,25.748789 67.7544391,25.9223697" id="Fill-125" fill="#FFC095"></path>
                    <path d="M55.7374943,3.08942817 L56.8357666,3 L58,16.3138633 L49.5723585,17 L49.0264597,10.7595537 C48.6849189,6.85322176 51.689588,3.41902371 55.7374943,3.08942817" id="Fill-126" fill="#1C3F55"></path>
                    <path d="M54.0842132,17.9928151 L56,17.8248391 L55.8385296,15.8318663 C55.7489805,14.7312202 54.818939,13.9140793 53.7609198,14.0072363 C52.7029007,14.1000265 51.917407,15.0675389 52.0069561,16.1681851 C52.0961526,17.2688313 53.0261941,18.0856054 54.0842132,17.9928151" id="Fill-127" fill="#FFC095"></path>
                    <path d="M70,8.26199408 L62.2339785,8.97750841 C59.0688447,9.26889247 56.2767661,6.69493141 56.009868,3.23942054 C55.8826302,1.59509383 57.0006662,0.149680927 58.5068152,0.0107700473 C60.0133405,-0.128140832 61.337291,1.09287758 61.4645287,2.73720429 C61.4777042,2.90899348 61.6162353,3.03680793 61.7735885,3.02242367 L69.5396101,2.30690935 L70,8.26199408 Z" id="Fill-128" fill="#1C3F55"></path>
                    <path d="M67.3151121,5.65257428 L63.1774488,5.98979252 C61.5645502,6.12140887 60.1467636,4.96489829 60.0105077,3.40652949 C59.874655,1.84855009 61.0719329,0.479039079 62.6848314,0.347422724 L66.8220916,0.0102044878 C68.4349902,-0.121411868 69.8531799,1.03548811 69.9894358,2.59346751 C70.1256917,4.15144691 68.9280107,5.52134732 67.3151121,5.65257428" id="Fill-129" fill="#1C3F55"></path>
                    <path d="M70.9746026,24.2985669 C71.1901917,25.9079149 70.0081825,27.3692904 68.3812511,27.5055501 L62.7315616,27.9795308 C59.5892237,28.2434607 56.8270137,25.9243129 56.5615525,22.8004911 L56,16.1788164 L58.1323288,16 C58.2430685,17.3020805 59.3940548,18.2683921 60.7036895,18.1582911 L70.0482373,17.3747003 L70.9746026,24.2985669 Z" id="Fill-130" fill="#1C3F55"></path>
                    <path d="M64,20.3164418 C64.0954405,21.3297253 65.0662381,22.0804793 66.1685395,21.9930811 C67.270841,21.9056829 68.0875495,21.0132835 67.9924732,20 L64,20.3164418 Z" id="Fill-131" fill="#FFFFFF"></path>
                    <path d="M10.0100394,157 L0,157 L0,153 L6.66113302,153 L10.4841162,155.1144 C10.8020079,155.2904 11,155.6284 11,155.9956 C11,156.5504 10.556687,157 10.0100394,157" id="Fill-67" fill="#353B3E"></path>
                </g>
                <g id="DudesHands" transform="translate(82.000000, 31.000000)">
                    <path d="M39.3263408,0.0311271727 C39.0248883,-0.011249899 38.7273456,-0.00899978904 38.4391866,0.0296270993 L38.4391866,0.0273769893 L33.0220328,0.750037318 L33.0220328,0.751537392 C32.0164089,0.885793955 31.1804742,1.63958081 31.0252516,2.65175529 C30.8367948,3.8814404 31.7235581,5.02449629 33.0052203,5.20525512 L38.4169002,5.96766739 C40.1263045,6.20880418 41.7148932,5.07512376 41.9662992,3.43554361 C42.2177051,1.79633847 41.0353541,0.272263961 39.3263408,0.0311271727" id="Fill-68" fill="#FFC095"></path>
                    <path d="M38.9942163,6 C38.8478708,6 38.6992681,5.98827493 38.5529226,5.96522911 L35,5.40444744 L35.109477,4.60431267 L38.6620233,5.16549865 C38.7722527,5.18247978 38.8839869,5.19137466 38.9942163,5.19137466 C40.103282,5.19137466 41.0614876,4.29986523 41.2236339,3.1180593 C41.3553072,2.15256065 40.9380909,1.19959569 40.1604658,0.690566038 L40.5513475,0 C41.5881809,0.678032345 42.1438423,1.94838275 41.9677763,3.23571429 C41.7522082,4.81172507 40.4738483,6 38.9942163,6" id="Fill-69" fill="#E0A780"></path>
                    <polygon id="Fill-74" fill="#E0A780" points="33.3976293 1 35 5.09571323 33.3114224 6 32 1.42350333"></polygon>
                    <path d="M10.9704577,26.5917977 C10.734694,24.9503956 9.15668053,23.8028767 7.44534135,24.0282554 L2.02668708,24.7430172 C0.743475934,24.912145 -0.154224491,26.0476637 0.022109521,27.278809 C0.167555757,28.2924508 0.996051925,29.0533383 2.0008821,29.1965907 L2.0008821,29.1980907 L7.41093471,29.9683534 L7.41093471,29.9664784 C7.69830832,30.007354 7.99545655,30.0126041 8.29768757,29.9724785 C10.0090268,29.7467247 11.2058303,28.2331998 10.9704577,26.5917977" id="Fill-97" fill="#FFC095"></path>
                    <path d="M7.97922866,30 C7.82061112,30 7.6587892,29.9919571 7.49937057,29.9761394 L7.49937057,29.9761394 L3,29.530563 L3.11736095,29 L7.61673152,29.4455764 C7.84624628,29.4683646 8.07616159,29.4699732 8.29766537,29.4490617 C8.73746853,29.4088472 9.15003433,29.2882038 9.49130236,29.1005362 L10,29.5150134 C9.54377432,29.7654155 8.993019,29.9265416 8.40701534,29.980429 C8.26682307,29.9932976 8.12262531,30 7.97922866,30" id="Fill-98" fill="#E0A780"></path>
                    <path d="M10.8047054,28 L9.98619643,27.7473844 C10.1245665,27.4038425 10.1653402,27.0458436 10.1089511,26.6832794 C9.95496556,25.7055355 9.10782828,24.9279056 8,24.7483356 L8.15745562,24 C9.63398164,24.2393 10.763498,25.2760129 10.9677999,26.5797984 C11.0428408,27.0568765 10.986018,27.5480312 10.8047054,28" id="Fill-99" fill="#E0A780"></path>
                    <polygon id="Fill-107" fill="#E0A780" points="1.82977913 28.9072853 2 24.2762045 0 24 0.287890327 29"></polygon>
                </g>
            </g>
            <g id="thankyou_card" transform="translate(724.000000, 141.500000) rotate(-39.000000) translate(-724.000000, -141.500000) translate(610.000000, 72.000000)">
                <g id="Rectangle">
                    <use fill="black" fill-opacity="1" filter="url(#filter-3)" xlink:href="#path-2"></use>
                    <path stroke="#E2E2E2" stroke-width="1.5" d="M215.25,0.75 C218.563708,0.75 221.563708,2.09314575 223.735281,4.26471863 C225.906854,6.4362915 227.25,9.4362915 227.25,12.75 L227.25,12.75 L227.25,126 C227.25,129.313708 225.906854,132.313708 223.735281,134.485281 C221.563708,136.656854 218.563708,138 215.25,138 L215.25,138 L12.75,138 C9.4362915,138 6.4362915,136.656854 4.26471863,134.485281 C2.09314575,132.313708 0.75,129.313708 0.75,126 L0.75,126 L0.75,12.75 C0.75,9.4362915 2.09314575,6.4362915 4.26471863,4.26471863 C6.4362915,2.09314575 9.4362915,0.75 12.75,0.75 L12.75,0.75 Z" stroke-linejoin="square" fill="#FFFFFF" fill-rule="evenodd"></path>
                </g>
                <path d="M206.993316,91.6692328 C209.455475,91.6692328 210.358854,91.8990845 211.26181,92.3819908 C212.10458,92.8327093 212.766501,93.4935289 213.218348,94.3354606 C213.718185,95.3504155 213.915708,96.2513071 213.933638,98.2980784 L213.933638,98.2980784 L213.934972,113.977577 C213.934972,116.439735 213.70512,117.343114 213.222214,118.246071 C212.770227,119.091214 212.106953,119.754487 211.26181,120.206475 C210.358854,120.689381 209.455475,120.919233 206.993316,120.919233 L206.993316,120.919233 L163.133179,120.919261 L162.530368,120.91403 C160.504321,120.876798 159.681391,120.646757 158.858134,120.206475 C158.012991,119.754487 157.349718,119.091214 156.89773,118.246071 C156.414824,117.343114 156.184972,116.439735 156.184972,113.977577 L156.184972,113.977577 L156.184943,98.6174402 L156.190175,98.0146284 C156.227407,95.988582 156.457448,95.1656514 156.89773,94.3423948 C157.348449,93.4996245 158.009268,92.8377042 158.8512,92.3858573 C159.866155,91.8860202 160.767046,91.688497 162.813777,91.6705673 L162.813777,91.6705673 Z" id="Rectangle" stroke="#E2E2E2" stroke-width="1.5" fill="#FFFFFF"></path>
                <path d="M19.9142029,99.8433651 L92.1642029,99.8433651 C93.5449148,99.8433651 94.6642029,100.962653 94.6642029,102.343365 C94.6642029,103.724077 93.5449148,104.843365 92.1642029,104.843365 L19.9142029,104.843365 C18.5334911,104.843365 17.4142029,103.724077 17.4142029,102.343365 C17.4142029,100.962653 18.5334911,99.8433651 19.9142029,99.8433651 Z" id="Rectangle" fill="#4464A5"></path>
                <path d="M19.911678,113.793973 L119.911678,113.793973 C121.29239,113.793973 122.411678,114.913261 122.411678,116.293973 C122.411678,117.674685 121.29239,118.793973 119.911678,118.793973 L19.911678,118.793973 C18.5309661,118.793973 17.411678,117.674685 17.411678,116.293973 C17.411678,114.913261 18.5309661,113.793973 19.911678,113.793973 Z" id="Rectangle-Copy-2" fill="#4464A5"></path>
                <g id="Thank" transform="translate(17.027490, 23.574023)" fill-rule="nonzero">
                    <polygon id="T" fill="#FF755C" points="18.8367188 38.9759766 18.8367188 10.4453613 27.7541016 10.4453613 27.7541016 2.35458984 9.23705556e-14 2.35458984 9.23705556e-14 10.4453613 8.94243164 10.4453613 8.94243164 38.9759766"></polygon>
                    <path d="M42.2072754,38.9759766 L42.2072754,26.5016602 C42.2072754,23.3789063 42.5871826,21.1453857 43.3469971,19.8010986 C44.1068115,18.4568115 45.2882812,17.784668 46.8914062,17.784668 C49.1458008,17.784668 50.272998,19.6883789 50.272998,23.4958008 L50.272998,23.4958008 L50.272998,38.9759766 L60.1171875,38.9759766 L60.1171875,20.5149902 C60.1171875,17.2252441 59.2363037,14.6660889 57.4745361,12.8375244 C55.7127686,11.00896 53.245459,10.0946777 50.0726074,10.0946777 C48.3692871,10.0946777 46.874707,10.3952637 45.5888672,10.9964355 C44.3030273,11.5976074 43.1925293,12.632959 42.257373,14.1024902 L42.257373,14.1024902 L41.8064941,14.1024902 C42.0736816,10.8962402 42.2072754,8.04067383 42.2072754,5.53579102 L42.2072754,5.53579102 L42.2072754,1.84741111e-13 L32.4131836,1.84741111e-13 L32.4131836,38.9759766 L42.2072754,38.9759766 Z" id="h" fill="#5F4887"></path>
                    <path d="M73.8689941,39.4769531 C76.0398926,39.4769531 77.8100098,39.1763672 79.1793457,38.5751953 C80.5486816,37.9740234 81.8929688,36.8551758 83.212207,35.2186523 L83.212207,35.2186523 L83.4125977,35.2186523 L85.2912598,38.9759766 L92.0794922,38.9759766 L92.0794922,20.3646973 C92.0794922,17.1250488 91.0817139,14.6034668 89.0861572,12.7999512 C87.0906006,10.9964355 84.2726074,10.0946777 80.6321777,10.0946777 C75.5890137,10.0946777 71.414209,10.9463379 68.1077637,12.6496582 L68.1077637,12.6496582 L70.9382813,19.1122559 C74.127832,17.7095215 76.757959,17.0081543 78.8286621,17.0081543 C81.1331543,17.0081543 82.2854004,18.1770996 82.2854004,20.5149902 L82.2854004,20.5149902 L82.2854004,20.9157715 L77.5511719,21.0660645 C73.5600586,21.2497559 70.5124512,22.080542 68.4083496,23.5584229 C66.304248,25.0363037 65.2521973,27.2865234 65.2521973,30.309082 C65.2521973,33.2147461 66.0203613,35.4691406 67.5566895,37.0722656 C69.0930176,38.6753906 71.1971191,39.4769531 73.8689941,39.4769531 Z M78.0270996,32.5634766 C76.1734863,32.5634766 75.2466797,31.6951172 75.2466797,29.9583984 C75.2466797,27.7040039 76.8581543,26.5183594 80.0811035,26.4014648 L80.0811035,26.4014648 L82.335498,26.3012695 L82.335498,28.5055664 C82.335498,29.7079102 81.9138428,30.6848145 81.0705322,31.4362793 C80.2272217,32.1877441 79.2127441,32.5634766 78.0270996,32.5634766 Z" id="a" fill="#09D3D3"></path>
                    <path d="M108.536572,38.9759766 L108.536572,26.5517578 C108.536572,23.3455078 108.903955,21.0827637 109.638721,19.7635254 C110.373486,18.4442871 111.56748,17.784668 113.220703,17.784668 C114.423047,17.784668 115.295581,18.2647705 115.838306,19.2249756 C116.38103,20.1851807 116.652393,21.6087891 116.652393,23.4958008 L116.652393,23.4958008 L116.652393,38.9759766 L126.446484,38.9759766 L126.446484,20.5149902 C126.446484,17.2085449 125.57395,14.6452148 123.828882,12.825 C122.083813,11.0047852 119.641553,10.0946777 116.5021,10.0946777 C114.581689,10.0946777 112.882544,10.4286621 111.404663,11.0966309 C109.926782,11.7645996 108.770361,12.7665527 107.9354,14.1024902 L107.9354,14.1024902 L107.359277,14.1024902 L106.131885,10.5956543 L98.7424805,10.5956543 L98.7424805,38.9759766 L108.536572,38.9759766 Z" id="n" fill="#FF72B5"></path>
                    <path d="M142.953662,38.9759766 L142.953662,31.2358887 L146.134863,28.8061523 L152.346973,38.9759766 L163.543799,38.9759766 L153.073389,22.6691895 L162.917578,10.5956543 L151.996289,10.5956543 L145.633887,18.6112793 C144.798926,19.6633301 143.788623,21.1328613 142.602979,23.019873 L142.602979,23.019873 L142.402588,23.019873 C142.769971,20.5149902 142.953662,17.9516602 142.953662,15.3298828 L142.953662,15.3298828 L142.953662,1.84741111e-13 L133.109473,1.84741111e-13 L133.109473,38.9759766 L142.953662,38.9759766 Z" id="k" fill="#FC856F"></path>
                </g>
                <g id="you" transform="translate(25.449902, 78.668701)" fill-rule="nonzero">
                    <path d="M6.61289063,41.2053223 C9.98613281,41.2053223 12.7206299,40.4121094 14.8163818,38.8256836 C16.9121338,37.2392578 18.6780762,34.5256348 20.114209,30.6848145 L20.114209,30.6848145 L31.336084,0.500976562 L21.3416016,0.500976562 L16.4069824,16.8328125 C16.1397949,17.7011719 15.9394043,18.7114746 15.8058105,19.8637207 L15.8058105,19.8637207 L15.6054199,19.8637207 C15.5219238,18.661377 15.3632813,17.634375 15.1294922,16.7827148 L15.1294922,16.7827148 L10.3201172,0.500976562 L1.82964754e-13,0.500976562 L11.1717773,28.4805176 C10.6207031,29.8665527 10.1030273,30.8643311 9.61875,31.4738525 C9.13447266,32.083374 8.56669922,32.555127 7.91542969,32.8891113 C7.26416016,33.2230957 6.5043457,33.3900879 5.63598633,33.3900879 C4.50043945,33.3900879 3.49013672,33.2898926 2.60507813,33.089502 L2.60507813,33.089502 L2.60507813,40.7794922 C3.97441406,41.0633789 5.31035156,41.2053223 6.61289063,41.2053223 Z" id="y" fill="#FF72B5"></path>
                    <path d="M47.5927734,29.3822754 C52.0848633,29.3822754 55.5791748,28.0839111 58.075708,25.4871826 C60.5722412,22.8904541 61.8205078,19.2708984 61.8205078,14.6285156 C61.8205078,11.6727539 61.24021,9.0885498 60.0796143,6.87590332 C58.9190186,4.66325684 57.2699707,2.96411133 55.1324707,1.7784668 C52.9949707,0.592822266 50.5318359,9.23705556e-14 47.7430664,9.23705556e-14 C43.2342773,9.23705556e-14 39.7316162,1.28166504 37.235083,3.84499512 C34.7385498,6.4083252 33.4902832,10.002832 33.4902832,14.6285156 C33.4902832,19.1540039 34.7635986,22.7443359 37.3102295,25.3995117 C39.8568604,28.0546875 43.284375,29.3822754 47.5927734,29.3822754 Z M47.6929688,22.1181152 C46.1566406,22.1181152 45.0628418,21.4793701 44.4115723,20.2018799 C43.7603027,18.9243896 43.434668,17.0666016 43.434668,14.6285156 C43.434668,12.1904297 43.7603027,10.3576904 44.4115723,9.13029785 C45.0628418,7.90290527 46.1399414,7.28920898 47.6428711,7.28920898 C49.1791992,7.28920898 50.2646484,7.90708008 50.8992188,9.14282227 C51.5337891,10.3785645 51.8510742,12.2071289 51.8510742,14.6285156 C51.8510742,17.0666016 51.5379639,18.9243896 50.9117432,20.2018799 C50.2855225,21.4793701 49.2125977,22.1181152 47.6929688,22.1181152 Z" id="o" fill="#FFC93C"></path>
                    <path d="M77.2505859,29.3822754 C79.2210937,29.3822754 80.9369385,29.0357666 82.3981201,28.342749 C83.8593018,27.6497314 84.9990234,26.6519531 85.8172852,25.3494141 L85.8172852,25.3494141 L86.3934082,25.3494141 L87.6208008,28.8812988 L95.0102051,28.8812988 L95.0102051,0.500976563 L85.2161133,0.500976563 L85.2161133,12.9251953 C85.2161133,16.0813477 84.8570801,18.3232178 84.1390137,19.6508057 C83.4209473,20.9783936 82.2186035,21.6421875 80.5319824,21.6421875 C79.3296387,21.6421875 78.4654541,21.1662598 77.9394287,20.2144043 C77.4134033,19.2625488 77.1503906,17.8598145 77.1503906,16.0062012 L77.1503906,16.0062012 L77.1503906,0.500976563 L67.3562988,0.500976563 L67.3562988,18.9870117 C67.3562988,22.293457 68.2246582,24.8526123 69.961377,26.6644775 C71.6980957,28.4763428 74.127832,29.3822754 77.2505859,29.3822754 Z" id="u" fill="#01D1DB"></path>
                </g>
            </g>
        </g>
    </g>
</svg>