<?xml version="1.0" encoding="UTF-8"?>
<svg width="900px" height="280px" viewBox="0 0 900 280" version="1.1" xmlns="http://www.w3.org/2000/svg" xmlns:xlink="http://www.w3.org/1999/xlink">
    <title>header</title>
    <g id="header" stroke="none" stroke-width="1" fill="none" fill-rule="evenodd">
        <rect id="bg" fill="#FFFFFF" fill-rule="nonzero" x="0" y="0" width="900" height="280"></rect>
        <g id="img" transform="translate(24.000000, 15.000000)">
            <path d="M662.796442,3.72759669 C750.795347,-19.1423056 836,66.0241099 836,182.412517 C836,199.241534 833.223262,216.974709 828.121496,234.998722 L393,234.998722 C402.677386,206.112348 425.368515,178.167921 465.601987,153.847888 L485.245766,142.003035 C520.426041,120.730205 558.531544,96.8054745 579.181912,73.4712202 C615.682326,32.2269204 624.857626,13.5874584 662.796442,3.72759669 Z" id="bg" fill="#3A85FC" fill-rule="nonzero"></path>
            <path d="M826.73807,137.270972 C828.356661,137.270972 829.968723,137.297909 831.573799,137.351365 C834.4599,151.681315 836,166.764742 836,182.412517 C836,199.155911 833.251445,216.794287 828.199186,234.723638 L694.413023,234.723201 L612.043176,235.00072 L612.392563,233.8623 C624.172157,196.40587 660.8261,167.84422 703.967164,167.84422 C714.415263,167.84422 724.470891,169.391103 733.877198,172.26769 C758.350956,150.441048 790.948411,137.270972 826.73807,137.270972 Z" id="sky" fill="#0866FB" fill-rule="nonzero"></path>
            <g id="face" transform="translate(595.168483, 36.540688)" fill-rule="nonzero">
                <path d="M44.351319,18.3017958 C54.5942248,21.6387978 60.2432565,32.7744262 57.0890436,43.286297 L56.9907624,43.604639 L55.9174141,46.9853628 C56.2326338,47.0200407 56.5487352,47.0876676 56.8618122,47.1903602 C59.410199,48.0252841 60.7938167,50.8659909 59.9510438,53.5348535 C59.1091376,56.2039179 56.3608093,57.6901309 53.8124225,56.855207 L52.8819433,56.5498616 L46.6445149,76.2061573 C46.6001167,76.3836763 46.551279,76.5586775 46.4980017,76.7311611 L46.4147563,76.9879982 C45.4495432,79.8303854 45.6494378,82.7866416 47.0144401,85.8567668 C49.2393281,88.5177651 51.8386106,87.5513886 51.8386106,87.5513886 L50.2775981,118.147279 L33.6779209,124.449057 L33.0627765,124.353009 C29.5199726,123.757934 12.033393,120.231452 16.5821944,109.209288 C18.3526442,104.919694 19.0311511,99.060847 19.1655125,93.2582452 L17.592487,69.2362468 L15.7217825,68.6274344 C10.9420594,67.0700545 8.39542002,61.7941295 10.0401264,56.9602301 L10.1258635,56.7189228 L19.8417545,30.4795875 C23.5710661,20.405339 34.3581012,15.0464041 44.351319,18.3017958 Z" fill="#FFC095"></path>
                <path d="M50.7722811,58.2106601 L51.7521633,58.668815 L51.9007596,58.7316702 L52.1037185,58.8080408 L52.3281868,58.8802819 L52.494315,58.925793 L52.6738415,58.9676106 L52.9021018,59.0100378 L53.1429102,59.0421007 L53.3302912,59.0582201 L53.540854,59.0672522 L53.74329,59.0669577 L53.9089888,59.0601959 L54.1317164,59.0418606 L54.3161361,59.0186127 L54.5132821,58.9855991 L54.6880091,58.9491901 L54.9845012,58.8716677 L55.1682444,58.8133794 L55.3169846,58.7602476 L55.5173124,58.6799646 C55.6356739,58.629478 55.7520875,58.5743778 55.8664,58.514719 L56.0870327,58.3923699 L56.2472056,58.2940906 L56.465757,58.1460638 L56.6154821,58.0345784 L56.7702722,57.9098821 L56.9070975,57.7909397 L57.0461345,57.6608629 L57.2132424,57.490815 L57.2678058,57.431719 C57.6219831,57.0421304 57.924419,56.5887177 58.1568078,56.0789498 C59.3185513,53.5326887 58.2914419,50.5445355 55.8638021,49.4052648 C53.4956816,48.2929282 50.6688252,49.3518871 49.4535443,51.7686619 L49.3654522,51.9524532 L48.7575526,53.2840344 L48.768784,53.291252 L41.6401256,67.9384275 C38.3561516,75.0683909 29.9737336,78.2113695 22.8098673,75.0500481 L22.5483298,74.931573 L9.56648385,68.8992848 C5.89468374,67.1937394 3.90164111,62.24077 5.63101129,58.6068177 L5.72904451,58.4099377 L12.2516555,43.6503409 C12.4437359,43.2156945 12.9517984,43.0190559 13.3864448,43.2111363 C13.3878975,43.2117783 13.3893484,43.2124243 13.3907975,43.2130743 L35.8272447,53.2771381 L35.8272447,53.2771381 C38.6598268,54.5939577 42.2723995,53.8024808 43.8423657,51.1958822 L54.3495578,28.5260672 C50.2602389,31.4565906 45.0368158,32.2567022 40.4144162,30.197437 L40.1202024,30.0621043 L25.141323,22.9520696 C23.5708376,24.4622565 22.215145,26.2570074 21.1562172,28.3074415 L19.2044357,32.0858681 C15.0093598,28.4692056 13.498435,22.4655348 15.8940804,17.2879877 C17.5828697,13.6353636 20.8438339,11.1978535 24.5394245,10.3795754 L24.749557,10.3346159 C25.7780785,8.36464441 27.2748413,6.81141719 29.0058023,5.77243078 C31.0546814,3.9925623 34.0667668,3.45629329 36.7707941,4.60916845 L36.907106,4.66879511 C37.2934899,4.78257786 37.6763005,4.92233794 38.0536634,5.08885613 L38.2886038,5.19633342 L45.7775732,8.74561849 L45.7706558,8.76156788 L46.4965362,9.09658417 C48.1147852,9.84404502 49.3422902,11.0845591 50.0736518,12.5442796 C52.034514,11.2062909 54.5097632,10.8843941 56.6895752,11.9193155 C60.0191612,13.5002149 61.4421634,17.6685443 59.991239,21.3821505 L60.5974695,21.6618775 C69.8103929,25.9152879 73.9791623,36.5302739 70.0148683,45.4885393 L69.8869729,45.7708719 L63.2096401,60.1745461 L61.9646329,59.6003824 L59.1204468,65.7835239 C57.0046307,70.3815372 51.6272987,72.4230338 47.015127,70.4284262 L46.7812888,70.3235199 L45.4979025,69.7265301 L50.7722811,58.2106601 Z" id="hair" fill="#1C3F55" transform="translate(38.256122, 40.139152) rotate(-7.000000) translate(-38.256122, -40.139152) "></path>
                <path d="M17.7677434,55.7431788 C18.0034708,58.3113938 20.4501873,60.2096078 23.23315,59.9824078 C26.0161127,59.7552078 28.0822834,57.4887681 27.8474755,54.9205512 L17.7677434,55.7431788 Z" id="smile" fill="#FFFFFF" transform="translate(22.816703, 57.460701) scale(-1, 1) rotate(-8.000000) translate(-22.816703, -57.460701) "></path>
            </g>
            <g id="jacket" transform="translate(555.162818, 120.487142)">
                <path d="M86.3222334,0.00160265175 C90.0344466,0.20154063 94.0002431,0.82828089 97.4818657,1.99909684 L98.5290494,2.34411648 C115.588972,7.85334215 130.403585,7.4108494 130.403585,34.3766965 C130.403585,45.2046026 119.864074,75.3794795 110.402222,101.150909 L109.527755,103.528734 C108.94316,105.115818 107.000786,109.145878 104.299249,114.512383 L0,114.513577 C12.3238158,104.290457 21.3600556,93.2055999 27.1087194,81.2590069 C35.4665794,63.8901095 36.6836607,40.6171834 30.7599632,11.4402285 C34.6950854,9.4045648 39.3527994,8.07240486 44.7331051,7.4437487 L45.6917289,7.33715042 C52.9734398,6.56971922 55.0102908,7.34629041 58.9650356,6.54144293 L59.822758,6.7231214 C62.0797959,7.18026076 68.2143678,8.28362644 71.1865736,7.4437487 C77.8975121,5.54739018 86.3222334,0.00160265175 86.3222334,0.00160265175 Z" id="body" fill="#022968"></path>
                <path d="M80.0972177,6.54144293 L86.3222614,68.753393 L52.7399919,-1.63424829e-13 C59.4490777,4.18364043 65.1709129,6.36412141 69.9054976,6.54144293 C74.6400824,6.71876445 78.0373224,6.71876445 80.0972177,6.54144293 Z" id="Path-8" fill="#FFFFFF" transform="translate(69.531127, 34.376696) scale(-1, 1) translate(-69.531127, -34.376696) "></path>
                <path d="M64.0584604,9.70491294 L56.00973,18.7049129 C53.1210483,26.7291761 53.4793385,30.7413077 57.0846007,30.7413077 C60.6898628,30.7413077 66.2135262,26.7291761 73.6555911,18.7049129 L67.2771775,9.70491294 L64.0584604,9.70491294 Z" id="Path-2" fill="#022968"></path>
            </g>
            <path d="M744.724934,82.4623804 L739.864302,85 L739.864302,85 L740.776645,79.7176095 C741.339609,76.4581001 740.25433,73.131095 737.877646,70.8305073 L734,67.0770146 L734,67.0770146 L739.416475,66.2954264 C742.667796,65.8262664 745.481337,63.7901884 746.943331,60.8484595 L749.352941,56 L749.352941,56 L751.762551,60.8484595 C753.224546,63.7901884 756.038087,65.8262664 759.289407,66.2954264 L764.705882,67.0770146 L764.705882,67.0770146 L760.828236,70.8305073 C758.451552,73.131095 757.366273,76.4581001 757.929237,79.7176095 L758.841581,85 L758.841581,85 L753.980949,82.4623804 C751.081303,80.948545 747.624579,80.948545 744.724934,82.4623804 Z" id="star" fill="#FFEA00" fill-rule="nonzero" transform="translate(749.352941, 70.500000) scale(-1, 1) rotate(-14.000000) translate(-749.352941, -70.500000) "></path>
            <path d="M19.3506404,237.950423 L11.6393201,242 L11.6393201,242 L13.1095171,233.437617 C13.666941,230.191197 12.5898989,226.878489 10.2298848,224.5806 L4,218.514709 L4,218.514709 L12.6186575,217.263735 C15.8748427,216.79111 18.6901668,214.746946 20.1476455,211.797052 L24,204 L24,204 L27.8523545,211.797052 C29.3098332,214.746946 32.1251573,216.79111 35.3813425,217.263735 L44,218.514709 L44,218.514709 L37.7701152,224.5806 C35.4101011,226.878489 34.333059,230.191197 34.8904829,233.437617 L36.3606799,242 L36.3606799,242 L28.6493596,237.950423 C25.7382846,236.42168 22.2617154,236.42168 19.3506404,237.950423 Z" id="star" fill="#FFEA00" fill-rule="nonzero" transform="translate(24.000000, 223.000000) scale(-1, 1) rotate(13.000000) translate(-24.000000, -223.000000) "></path>
            <path d="M596.685438,176 C626.476974,176 653.533569,187.463648 673.504169,206.131711 C682.5494,202.551271 692.4493,200.577778 702.825355,200.577778 C725.26147,200.577778 745.471312,209.804905 759.628215,224.553418 C767.975068,220.360285 777.40202,218 787.379862,218 C803.891408,218 818.894381,224.463484 830,235 L435,235.000665 C448.801412,214.289795 472.84359,200.577778 500.194138,200.577778 C507.952554,200.577778 515.444757,201.681133 522.512777,203.734857 C542.198263,186.487253 568.190852,176 596.685438,176 Z" id="sky" fill="#FFFFFF" fill-rule="nonzero"></path>
            <g id="arm" transform="translate(437.539521, 58.700922)">
                <path d="M44.728387,36.7048496 L49.3833439,43.105768 L62.9668762,30.955979 L56.9637402,25.2480259 C56.2126912,26.6579231 55.6446388,27.6605826 55.2595828,28.2560045 C53.8578921,30.4234748 52.5202038,31.9770967 51.4959862,32.9816639 C50.0497272,34.4001753 47.7938608,35.6412372 44.728387,36.7048496 Z" id="Path-4" fill="#F5F5F5"></path>
                <path d="M47.7262152,70.3330925 C76.7986884,73.9578784 94.6599765,72.5860054 101.31008,66.2174736 C107.960183,59.8489418 121.857315,47.7960059 143.001476,30.0586658 L158.485023,44.413686 C143.559007,64.992015 131.857646,80.7243606 123.380941,91.6107228 C114.904235,102.497085 90.3274565,108.697587 49.6506053,110.212227 L47.7262152,70.3330925 Z" id="Path-7" fill="#022968" transform="translate(103.105619, 70.135447) scale(-1, 1) rotate(-1.000000) translate(-103.105619, -70.135447) "></path>
                <path d="M43.3254566,37.0317476 C36.2894147,37.0317476 32.050545,32.8270771 27.3154784,32.8270771 C24.8383037,32.8270771 19.7348797,33.0236118 15.8026269,34.2042152 C12.2184626,35.2803101 10.3611449,36.3398023 9.36703284,36.6752543 C7.65263517,37.2537587 4.08846814,37.0317476 5.39574846,34.2042152 C5.99536077,32.9073066 8.41273318,30.8620491 12.8730544,29.232228 C14.2214775,28.7395083 16.6785969,28.1601633 20.2444129,27.494193 C17.3825309,26.7460893 15.3560547,26.4199267 14.1649842,26.5157055 C8.10006865,27.0034099 4.74047529,28.3892243 4.04476072,27.494193 C3.52413488,26.824412 1.55208415,24.992062 2.36251998,24.3038291 C3.65510856,23.2061455 8.69867578,23.2680193 12.8730544,22.3772379 C16.6142203,21.5789008 19.0713398,21.1846532 20.2444129,21.1944948 C18.2620225,20.5554896 15.5933694,20.2196574 12.2384536,20.1869981 C9.3752541,20.1591255 5.0726985,21.7010258 3.07110759,21.1944948 C0.461687635,20.5341441 -0.722090016,17.9581856 0.457100817,17.1481914 C2.90609015,15.465964 10.0041667,14.325721 21.7513305,13.7274626 C20.0846046,11.1261541 17.8622451,9.08648325 15.0842519,7.60845006 C10.5408408,5.19112506 5.72920283,3.93506738 6.47768246,1.58550551 C7.43666197,-1.42483918 16.7106943,-0.367649043 30.5990525,6.65322507 C34.9807922,8.86829201 42.0621989,10.9946594 49.6755475,16.5616432 C54.7511132,20.2729657 57.123266,23.3115126 56.7920058,25.6772837 C52.5050009,33.2469263 48.0161512,37.0317476 43.3254566,37.0317476 Z" id="hand" fill="#F2B286"></path>
            </g>
            <path d="M621.879046,218.19874 L586.648858,236.715732 L586.648858,236.715732 L593.376657,197.499421 C593.93327,194.254925 592.857436,190.944317 590.499869,188.646829 L562,160.87324 L562,160.87324 L601.387906,155.151266 C604.644803,154.678129 607.460384,152.632778 608.917197,149.681688 L626.531549,114 L626.531549,114 L644.145901,149.681688 C645.602713,152.632778 648.418295,154.678129 651.675191,155.151266 L691.063098,160.87324 L691.063098,160.87324 L662.563228,188.646829 C660.205661,190.944317 659.129828,194.254925 659.686441,197.499421 L666.41424,236.715732 L666.41424,236.715732 L631.184052,218.19874 C628.271297,216.667795 624.791801,216.667795 621.879046,218.19874 Z" id="star" fill="#FFEA00" fill-rule="nonzero" transform="translate(626.531549, 175.357866) scale(-1, 1) rotate(-19.000000) translate(-626.531549, -175.357866) "></path>
            <g id="arm" transform="translate(575.683172, 126.509680)">
                <polygon id="Path-9" fill="#FFFFFF" transform="translate(19.127664, 43.330284) scale(-1, 1) translate(-19.127664, -43.330284) " points="29.4380663 42.3420493 27.5074113 49.6885723 8.81726076 43.1341534 12.9190544 36.971996"></polygon>
                <path d="M12.2846137,46.1858978 C21.0099026,65.1735679 27.8119139,78.1112263 32.6906478,84.998873 C43.8191964,100.709817 60.4864969,109.966478 67.7603282,109.966478 C75.2537171,109.966478 83.628977,106.600197 93.429249,91.0190921 C97.4083501,84.6928605 103.178939,71.2145177 110.741015,50.5840638 C96.1045288,44.7237825 88.7862858,41.7936418 88.7862858,41.7936418 C81.8234627,55.8748555 74.1269521,72.7961568 68.4108802,72.6963824 C64.6001655,72.6298661 50.3465957,48.731072 25.6501706,1 C16.4234661,3.43258942 10.8537274,9.26752185 8.94095462,18.5047973 C7.0281818,27.7420727 8.14273483,36.9691062 12.2846137,46.1858978 Z" fill="#022968" transform="translate(59.387775, 55.483239) scale(-1, 1) rotate(-1.000000) translate(-59.387775, -55.483239) "></path>
                <path d="M3.24628594,36.971996 C1.10251681,30.7820717 0.0219336637,27.2806134 0.00453650564,26.4676211 C-0.0682372699,23.0668059 0.758641515,18.5532014 0.758641515,17.0973541 C0.758641515,16.2299978 2.89417875,15.0393215 3.9642391,17.884122 C4.22172305,18.568654 4.05682245,21.5127219 4.28094651,23.5400348 C4.3592462,24.2482943 4.83501192,25.491719 5.70824365,27.2703091 C6.17975795,25.3752793 6.4525545,23.8572799 6.5266333,22.7163108 C6.56980154,22.0514292 5.69354581,21.5362148 5.70824365,19.4255488 C5.7264422,16.812167 8.52558446,14.2005727 10.5276412,14.2005727 C15.2884541,14.2005727 18.8676518,14.2005727 21.491065,14.2005727 C23.3636562,14.2005727 29.1560079,14.2005727 28.5364156,22.7163108 C28.0786167,29.0083441 25.8914389,32.8030832 24.1144782,36.971996 C23.4359411,38.5639062 21.9862143,40.353924 19.7652978,42.3420493 L3.24628594,36.971996 Z" id="hand" fill="#FFC095" transform="translate(14.291279, 28.271311) scale(-1, 1) translate(-14.291279, -28.271311) "></path>
            </g>
            <path d="M434.194994,95.7887401 L414.143385,106.327869 L414.143385,106.327869 L417.971766,84.0122532 C419.084992,77.523261 416.933325,70.9020449 412.218191,66.3070693 L396,50.5021766 L396,50.5021766 L418.417097,47.2455921 C424.93089,46.2993181 430.562053,42.208616 433.475678,36.3064368 L443.5,16 L443.5,16 L453.524322,36.3064368 C456.437947,42.208616 462.06911,46.2993181 468.582903,47.2455921 L491,50.5021766 L491,50.5021766 L474.781809,66.3070693 C470.066675,70.9020449 467.915008,77.523261 469.028234,84.0122532 L472.856615,106.327869 L472.856615,106.327869 L452.805006,95.7887401 C446.979496,92.726851 440.020504,92.726851 434.194994,95.7887401 Z" id="star" fill="#FFEA00" fill-rule="nonzero" transform="translate(443.500000, 61.163934) rotate(14.000000) translate(-443.500000, -61.163934) "></path>
            <path d="M488.976864,84.2607104 C487.081437,86.2936105 481.463595,88.8259934 477.29002,84.2607104 C473.116445,79.6954274 470.776991,77.9980209 466.324061,75.8655615 C462.187826,73.8847636 461.25895,73.678562 459.032917,73.4425758 C456.806883,73.2065896 453.051166,69.1971861 459.994005,68.0756585 C464.007945,67.4272573 475.360011,71.1371822 478.548839,71.9380605 C485.01107,73.5610583 488.81906,75.7365944 489.801671,77.8765802 C490.784282,80.0165659 490.872291,82.2278104 488.976864,84.2607104 Z" id="finger" fill="#FFC095"></path>
            <path d="M196.307105,228.746382 C196.307105,228.746382 196.307105,228.746382 196.307105,228.746382 C205.110734,208.808894 225.789089,194.811594 249.895888,194.811594 C257.514331,194.811594 264.79036,196.209563 271.45738,198.751193 C286.487721,184.663285 306.924046,176 329.439614,176 C351.051619,176 370.747914,183.98191 385.587333,197.082191 C390.821828,195.604707 396.3659,194.811594 402.104235,194.811594 C427.020298,194.811594 448.273877,209.764379 456.539027,230.773922 C456.539027,230.773922 456.539027,230.773922 456.539027,230.773922 C457.164494,232.363825 456.382665,234.159737 454.792762,234.785204 C454.432048,234.927109 454.047877,234.999958 453.660254,235 L200.381869,235 C197.921811,234.999968 195.927541,233.005698 195.927541,230.545641 C195.927541,229.926016 196.056817,229.313207 196.307105,228.746382 Z" id="sky" fill="#0351CD" fill-rule="nonzero"></path>
        </g>
        <g id="text" transform="translate(40.000000, 51.000000)">
            <text id="You-have-received-a" font-family="OpenSans-Bold, Open Sans" font-size="32" font-weight="bold" line-spacing="38" fill="#212529">
                <tspan x="0" y="34">You have received </tspan>
                <tspan x="0" y="72">a prepaid card</tspan>
            </text>
            <text id="Make-dreams-come-tru" font-family="Roboto-Regular, Roboto" font-size="24" font-weight="normal" fill="#232932">
                <tspan x="0" y="114">Make dreams come true!</tspan>
            </text>
        </g>
    </g>
</svg>